#N canvas 827 239 734 565 12;
#X declare -lib mrpeach;
#X obj 1424 545 openpanel;
#X obj 1462 692 soundfiler;
#X obj 1366 507 bng 25 250 50 0 empty empty empty 0 -10 0 10 #e4e4e4 #4d4d4d #00b3a9;
#N canvas 0 0 450 250 (subpatch) 0;
#X array loop1 480000 float 2;
#X coords 0 1 480000 -1 200 140 1;
#X restore 1594 545 graph;
#X obj 1600 742 t f f;
#X obj 1676 782 sig~;
#X obj 1600 871 /;
#X obj 1600 910 phasor~;
#X obj 1655 954 *~;
#X obj 1624 795 t b f;
#X msg 1424 605 read -resize \$1 loop1;
#X obj 1606 1006 tabread4~ loop1;
#X obj 1394 764 knob 50 0 2 0 0 empty empty #E4E4E4 #B7B7B7 #00b7ae 1 0 0 0 1 360 0 0 0 empty empty 0 12 6 -15 0 1 0 0;
#X obj 1454 862 *;
#X obj 1484 816 44100;
#X text 1606 504 Check if file loaded correctly;
#X text 1325 469 Start | Select File;
#X text 1221 779 Frequency / pitch Control;
#X text 1728 870 Seamless Loop;
#X text 1505 920 Intensity;
#X obj 1570 1071 vcf~;
#X obj 1394 862 knob 50 200 8000 0 0 empty empty #E4E4E4 #B7B7B7 #e07000 1 0 0 0 1 360 0 0 0 empty empty 0 12 6 -15 0 1 0 0;
#X obj 1555 1133 *~;
#X obj 1394 954 knob 50 0 1 0 0 empty empty #E4E4E4 #B7B7B7 #b700b7 1 0 0 0 1 360 0 0 0 empty empty 0 12 6 -15 0 1 0 0;
#X obj 1479 1032 sig~;
#X text 1236 871 Depth (Filter Cutoff);
#X obj 1394 1032 knob 50 1 15 0 0 empty empty #E4E4E4 #B7B7B7 #cc2200 1 0 0 0 1 360 0 0 0 empty empty 0 12 6 -15 0 1 0 0;
#X obj 1394 1167 knob 50 0 1 0 0 empty empty #E4E4E4 #B7B7B7 #cc2200 1 0 0 0 1 360 0 0 0 empty empty 0 12 6 -15 0 1 0 0;
#X obj 1555 1238 osc~;
#X obj 1555 1288 *~;
#X obj 1555 1338 expr~ $v1 * 0.5 + 0.5;
#X obj 1555 1388 *~;
#X obj 1555 1438 dac~;
#X obj 1394 1119 sig~;
#X obj 1199 1238 sig~;
#X text 1236 1038 Load Rate (LFO Hz);
#X text 1310 1182 Load Depth;
#X text 1236 953 Amplitude (near Max);
#X obj 648 449 declare -lib mrpeach;
#X text 648 469 Vehicle Dynamics OSC Receiver;
#X obj 648 514 udpreceive 9001;
#X obj 648 544 oscparse;
#X obj 648 574 list trim;
#X obj 648 604 route vehicle;
#X obj 648 634 route speed throttle speeding pedestrians;
#X obj 648 694 display;
#X obj 808 694 display;
#X obj 968 694 display;
#X obj 1108 694 display;
#X text 648 484 Listening on port 9001 -- Processing must be in OSC mode;
#X text 800 734 Throttle;
#X text 648 734 Vehicle Speed;
#X text 952 734 Speeding;
#X text 1108 734 Pedestrians;
#X text 648 763 0 - 200;
#X text 810 763 0 - 1;
#X text 952 757 toggle;
#X text 1115 755 toggle;
#X obj 1190 808 *;
#X obj 1207 756 0.01;
#X obj 1199 1099 *;
#X obj 1199 1063 15;
#X connect 0 0 10 0;
#X connect 1 0 4 0;
#X connect 2 0 0 0;
#X connect 2 0 59 0;
#X connect 2 0 61 0;
#X connect 4 0 9 0;
#X connect 4 1 5 0;
#X connect 5 0 8 1;
#X connect 6 0 7 0;
#X connect 7 0 8 0;
#X connect 8 0 11 0;
#X connect 9 0 14 0;
#X connect 9 0 12 0;
#X connect 9 0 21 0;
#X connect 9 1 6 1;
#X connect 10 0 1 0;
#X connect 11 0 20 0;
#X connect 13 0 6 0;
#X connect 14 0 13 1;
#X connect 20 0 22 1;
#X connect 21 0 20 1;
#X connect 22 0 31 0;
#X connect 24 0 22 0;
#X connect 28 0 29 0;
#X connect 29 0 30 0;
#X connect 30 0 31 1;
#X connect 31 0 32 0;
#X connect 31 0 32 1;
#X connect 33 0 28 0;
#X connect 34 0 29 1;
#X connect 40 0 41 0;
#X connect 41 0 42 0;
#X connect 42 0 43 0;
#X connect 43 0 44 0;
#X connect 44 0 45 0;
#X connect 44 1 46 0;
#X connect 44 2 47 0;
#X connect 44 3 48 0;
#X connect 45 0 58 0;
#X connect 46 0 60 0;
#X connect 46 0 34 0;
#X connect 48 0 24 0;
#X connect 58 0 13 0;
#X connect 59 0 58 1;
#X connect 60 0 33 0;
#X connect 61 0 60 1;
